<?xml version="1.0" standalone="no"?>
<!DOCTYPE svg PUBLIC "-//W3C//DTD SVG 1.1//EN" "http://www.w3.org/Graphics/SVG/1.1/DTD/svg11.dtd" >
<svg xmlns="http://www.w3.org/2000/svg" xmlns:xlink="http://www.w3.org/1999/xlink" version="1.1">
<metadata>
Created by FontForge 20191125 at Wed Jan 18 01:50:40 2012
 By convertio
Copyright (c) 2012 by PYRS Fontlab Ltd. / Made with FontLab. All rights reserved.
</metadata>
<defs>
<font id="Neou-Thin" horiz-adv-x="341" >
  <font-face 
    font-family="Neou Thin"
    font-weight="100"
    font-stretch="normal"
    units-per-em="1000"
    panose-1="0 0 0 0 0 0 0 0 0 0"
    ascent="715"
    descent="-285"
    x-height="715"
    cap-height="715"
    bbox="0 -282 1021 850"
    underline-thickness="50"
    underline-position="-99"
    unicode-range="U+000D-201D"
  />
<missing-glyph horiz-adv-x="500" 
d="M63 0v715h375v-715h-375v0zM125 63h250v590h-250v-590v0z" />
    <glyph glyph-name=".notdef" horiz-adv-x="500" 
d="M63 0v715h375v-715h-375v0zM125 63h250v590h-250v-590v0z" />
    <glyph glyph-name="NULL" horiz-adv-x="0" 
 />
    <glyph glyph-name="NULL" horiz-adv-x="0" 
 />
    <glyph glyph-name="nonmarkingreturn" unicode="&#xd;" horiz-adv-x="0" 
 />
    <glyph glyph-name="space" unicode=" " 
 />
    <glyph glyph-name="exclam" unicode="!" horiz-adv-x="151" 
d="M33 110h-20v605h20v-605zM23 39q8 0 14 -5.5t6 -13.5t-6 -14t-14 -6t-14 6t-6 14t6 13.5t14 5.5z" />
    <glyph glyph-name="quotedbl" unicode="&#x22;" horiz-adv-x="192" 
d="M81 714v-118h-19v118h19zM0 714h19v-118h-19v118z" />
    <glyph glyph-name="numbersign" unicode="#" horiz-adv-x="578" 
d="M344 483h-178l-20 -250h179zM363 483l-19 -250h131v-19h-132l-17 -213h-19l16 213h-178l-17 -213h-19l17 213h-126v19h127l19 250h-131v19h133l16 213h20l-17 -213h179l16 213h19l-16 -213h125v-19h-127z" />
    <glyph glyph-name="dollar" unicode="$" horiz-adv-x="517" 
d="M238 19q34 0 63.5 13t51.5 35.5t35 52t13 63.5t-13 64t-35 52.5t-51.5 35.5t-63.5 13h-12q-4 0 -6 1v-330h18v0zM201 367h-1h1zM39 531q0 -34 12.5 -63.5t34.5 -52t51.5 -35.5t63.5 -13v329q-34 0 -63.5 -13t-51.5 -35.5t-34.5 -52.5t-12.5 -64zM273 364q31 -6 58 -22.5
t47 -40.5t31 -54t11 -64q0 -38 -14.5 -71.5t-39 -58t-58 -39t-70.5 -14.5h-18v-43h-19v43h-18q-38 0 -71.5 14.5t-58 39t-39 58t-14.5 71.5v4h19v-4q0 -34 13 -63.5t35.5 -52t52 -35.5t63.5 -13h18v331q-12 1 -24.5 3t-24.5 4t-22 5.5t-15 7.5q-43 23 -69.5 66t-26.5 95
q0 38 14 71.5t39 58t58 39.5t71 15v37h19v-37q36 0 68.5 -14t56.5 -37.5t39 -55t17 -67.5h-20q-2 32 -15 60t-35 49t-50.5 33.5t-60.5 12.5v-329q10 0 20 -1q8 -1 17 -1.5t16 -0.5z" />
    <glyph glyph-name="percent" unicode="%" horiz-adv-x="578" 
d="M121 688q-21 0 -39.5 -8t-32.5 -22t-22 -32t-8 -39t8 -39.5t22 -32.5t32.5 -22t39.5 -8t39.5 8t32 22t21.5 32.5t8 39.5t-8 39t-21.5 32t-32 22t-39.5 8zM121 466q-25 0 -47 9.5t-38.5 26t-26 38.5t-9.5 47t9.5 46.5t26 38t38.5 26t47 9.5t46.5 -9.5t38 -26t26 -38
t9.5 -46.5t-9.5 -47t-26 -38.5t-38 -26t-46.5 -9.5zM369 20q21 0 39.5 8t32.5 21.5t22 32t8 39.5t-8 39.5t-22 32.5t-32.5 22t-39.5 8t-39.5 -8t-32 -22t-21.5 -32.5t-8 -39.5t8 -39.5t21.5 -32t32 -21.5t39.5 -8zM369 242q25 0 47 -9.5t38.5 -26t26 -38.5t9.5 -47t-9.5 -47
t-26 -38.5t-38.5 -26t-47 -9.5t-46.5 9.5t-38 26t-26 38.5t-9.5 47t9.5 47t26 38.5t38 26t46.5 9.5zM490 715l-471 -715h-19l471 715h19z" />
    <glyph glyph-name="ampersand" unicode="&#x26;" horiz-adv-x="636" 
d="M234 19q31 0 59 11.5t50 31t36 46.5t17 58v182h-213q-34 0 -63.5 -13t-52 -35.5t-35.5 -52.5t-13 -64t13 -63.5t35.5 -52t52 -35.5t63.5 -13h51v0zM562 18q-13 -8 -27.5 -13t-31.5 -5q-21 0 -40 7.5t-33 21t-23 32t-10 39.5h-1q-23 -45 -65.5 -72.5t-96.5 -27.5h-51
q-38 0 -71.5 14.5t-58 39t-39 58t-14.5 71.5q0 34 11.5 64t31 54t46.5 40.5t58 22.5q-48 21 -78 66t-30 101q0 38 14.5 71.5t39 58.5t57.5 39.5t71 14.5h23q36 0 67.5 -15t54.5 -40t36.5 -58.5t13.5 -69.5h-20q0 33 -12 61.5t-32.5 50.5t-48 36t-59.5 16h-23
q-34 0 -63.5 -13t-51.5 -35.5t-35 -52.5t-13 -64t13 -63.5t35 -52t51.5 -35.5t63.5 -13h175v84h20v-84h79v-19h-79v-248q0 -34 26 -57.5t61 -23.5q13 0 25 4t22 10z" />
    <glyph glyph-name="quotesingle" unicode="'" horiz-adv-x="134" 
d="M23 596h-20v118h20v-118z" />
    <glyph glyph-name="parenleft" unicode="(" horiz-adv-x="239" 
d="M147 1q-31 0 -57.5 27.5t-46.5 76t-31.5 113.5t-11.5 140t11.5 140t31.5 113.5t46.5 76t57.5 27.5v-19q-26 0 -49 -27t-40.5 -73.5t-28 -107.5t-10.5 -130t10.5 -130t28 -107.5t40.5 -73.5t49 -27v-19z" />
    <glyph glyph-name="parenright" unicode=")" horiz-adv-x="251" 
d="M0 20q26 0 49 27t40.5 73.5t28 107.5t10.5 130t-10.5 130t-28 107.5t-40.5 73.5t-49 27v19q31 0 57.5 -27.5t46.5 -76t31.5 -113.5t11.5 -140t-11.5 -140t-31.5 -113.5t-46.5 -76t-57.5 -27.5v19z" />
    <glyph glyph-name="asterisk" unicode="*" horiz-adv-x="245" 
d="M136 607q8 -6 3 -13q-5 -8 -13 -4l-46 28v-54q0 -9 -10 -9q-9 0 -9 9v54l-46 -28q-9 -4 -14 4q-1 3 -0.5 7t4.5 6l46 28l-46 28q-6 4 -4 13q5 8 14 3l46 -27v53q0 10 9 10q10 0 10 -10v-53l46 27q8 6 13 -3q4 -7 -3 -13l-47 -28l47 -28v0z" />
    <glyph glyph-name="plus" unicode="+" horiz-adv-x="420" 
d="M333 338h-157v-157h-19v157h-157v19h157v157h19v-157h157v-19z" />
    <glyph glyph-name="comma" unicode="," horiz-adv-x="168" 
d="M28 20h23l-41 -118h-10z" />
    <glyph glyph-name="hyphen" unicode="-" horiz-adv-x="338" 
d="M0 338v19h215v-19h-215z" />
    <glyph glyph-name="period" unicode="." horiz-adv-x="155" 
d="M43 20q0 -8 -6 -14t-14 -6t-14 6t-6 14t6 13.5t14 5.5t14 -5.5t6 -13.5z" />
    <glyph glyph-name="slash" unicode="/" horiz-adv-x="354" 
d="M19 0h-19l249 715h19z" />
    <glyph glyph-name="zero" unicode="0" horiz-adv-x="652" 
d="M326 0q-135 0 -206 106q-32 47 -47.5 110.5t-15.5 140.5t17 140.5t49 111.5q35 52 87 79t116 27t116 -27t87 -79q32 -48 49 -111.5t17 -140.5t-15.5 -140.5t-47.5 -110.5q-71 -106 -206 -106zM326 696q-69 0 -116.5 -30t-77.5 -78t-43 -109t-13 -122q0 -151 60 -240
q65 -98 190 -98t190 98q60 89 60 240q0 61 -13 122t-43 109t-77.5 78t-116.5 30z" />
    <glyph glyph-name="one" unicode="1" horiz-adv-x="652" 
d="M424 715v-715h-19v687l-164 -163l-13 13l177 178v0h19z" />
    <glyph glyph-name="two" unicode="2" horiz-adv-x="652" 
d="M538 19v-19h-413v19l344 356q20 26 31.5 57.5t11.5 67.5q0 40 -15 76t-40.5 62.5t-60.5 42t-74 15.5t-73.5 -15.5t-60 -42t-40.5 -62.5t-15 -76h-19q0 44 16.5 83t45 68.5t66 46.5t80.5 17t81 -17t66.5 -46.5t45 -68.5t16.5 -83q0 -45 -16.5 -84.5t-45.5 -68.5l-318 -328
h387z" />
    <glyph glyph-name="three" unicode="3" horiz-adv-x="652" 
d="M386 364q31 -6 58.5 -22.5t47 -40.5t31 -54t11.5 -64q0 -38 -14.5 -71.5t-39 -58t-58 -39t-71.5 -14.5h-51q-36 0 -67.5 13t-56 35.5t-40 52.5t-18.5 65h19q3 -31 17.5 -58t36 -46.5t49.5 -31t60 -11.5h51q34 0 63.5 13t52 35.5t35.5 52t13 63.5t-13 64t-35.5 52.5
t-52 35.5t-63.5 13h-82v19h43q34 0 64 13t52 35.5t35 52t13 63.5t-13 64t-35 52.5t-52 35.5t-64 13h-22q-32 -2 -60 -16t-48.5 -36t-32.5 -50.5t-12 -61.5h-19q0 36 13.5 69.5t36.5 58.5t54.5 40t67.5 15h22q38 0 71.5 -14.5t58 -39.5t39 -58.5t14.5 -71.5q0 -56 -30.5 -101
t-78.5 -66z" />
    <glyph glyph-name="four" unicode="4" horiz-adv-x="652" 
d="M465 277v409l-318 -409h318zM529 257h-45v-257h-19v257h-342v20l340 438l2 -2v2h19v-438h45v-20z" />
    <glyph glyph-name="five" unicode="5" horiz-adv-x="652" 
d="M299 430q45 0 84 -17t68 -46.5t46 -68.5t17 -84t-17 -84t-46 -68t-68 -45.5t-84 -16.5q-48 0 -90 19t-71 52v31q26 -38 68 -61t93 -23q40 0 76 15.5t62.5 42t42 62t15.5 76.5t-15.5 77t-42 62.5t-62.5 42t-76 15.5q-51 0 -93 -23t-68 -61v31v357h9h10h313v-19h-313v-319
q29 25 64.5 39t77.5 14z" />
    <glyph glyph-name="six" unicode="6" horiz-adv-x="652" 
d="M326 411q-41 0 -76.5 -15.5t-62.5 -42t-42.5 -62.5t-15.5 -77t15.5 -76.5t42.5 -62t62.5 -42t76.5 -15.5q40 0 76 15.5t63 42t42.5 62t15.5 76.5t-15.5 77t-42.5 62.5t-63 42t-76 15.5zM523 499q0 41 -15.5 77t-42.5 62.5t-63 42t-76 15.5q-41 0 -76.5 -15.5t-62.5 -42
t-42.5 -62.5t-15.5 -77v-89v-107q26 57 78.5 92t118.5 35q45 0 84 -17t68.5 -46.5t46.5 -68.5t17 -84t-17 -84t-46.5 -68t-68.5 -45.5t-84 -16.5q-44 0 -82 16t-67.5 44t-47 65.5t-19.5 80.5v293q0 45 17 84t46.5 68.5t68.5 46.5t84 17t84 -17t68.5 -46.5t46.5 -68.5t17 -84
h-19z" />
    <glyph glyph-name="seven" unicode="7" horiz-adv-x="652" 
d="M556 696v0v0l-334 -696h-22l333 696h-437v19h460v-19z" />
    <glyph glyph-name="eight" unicode="8" horiz-adv-x="652" 
d="M370 19q34 0 63.5 13t52 35.5t35.5 52t13 63.5t-13 64t-35.5 52.5t-52 35.5t-63.5 13h-88q-34 0 -63.5 -13t-52 -35.5t-35.5 -52.5t-13 -64t13 -63.5t35.5 -52t52 -35.5t63.5 -13h88v0zM157 531q0 -34 13 -63.5t35 -52t51.5 -35.5t63.5 -13h12q34 0 63.5 13t51.5 35.5
t35 52t13 63.5t-13 64t-35 52.5t-51.5 35.5t-63.5 13h-12q-34 0 -63.5 -13t-51.5 -35.5t-35 -52.5t-13 -64zM406 364q31 -6 58 -22.5t47 -40.5t31 -54t11 -64q0 -38 -14.5 -71.5t-39 -58t-58 -39t-71.5 -14.5h-88q-38 0 -71.5 14.5t-58 39t-39 58t-14.5 71.5q0 34 11 64
t31 54t46.5 40.5t58.5 22.5q-48 21 -78 66t-30 101v1h-1q0 36 13.5 69.5t36.5 58.5t54.5 40t67.5 15h34q36 0 67.5 -15t54.5 -40t36.5 -58.5t13.5 -69.5h-1v-1q0 -56 -30 -101t-78 -66z" />
    <glyph glyph-name="nine" unicode="9" horiz-adv-x="652" 
d="M326 303q40 0 76 15.5t63 42t42.5 62t15.5 76.5t-15.5 77t-42.5 62.5t-63 42t-76 15.5q-41 0 -76.5 -15.5t-62.5 -42t-42.5 -62.5t-15.5 -77t15.5 -76.5t42.5 -62t62.5 -42t76.5 -15.5zM129 214q0 -41 15.5 -76.5t42.5 -62t62.5 -42t76.5 -15.5q40 0 76 15.5t63 42
t42.5 62t15.5 76.5v89v107q-26 -57 -78.5 -92t-118.5 -35q-45 0 -84 17t-68.5 46.5t-46.5 68.5t-17 84t17 84t46.5 68.5t68.5 46.5t84 17q43 0 81.5 -16t68 -44t47 -66t19.5 -81v-294q0 -45 -17 -84t-46.5 -68t-68.5 -45.5t-84 -16.5t-84 16.5t-68.5 45.5t-46.5 68t-17 84
h19z" />
    <glyph glyph-name="colon" unicode=":" horiz-adv-x="156" 
d="M23 339q-8 0 -14 5.5t-6 13.5t6 14t14 6t14 -6t6 -14t-6 -13.5t-14 -5.5zM23 39q8 0 14 -5.5t6 -13.5q0 -17 -17 -20h-3h-3q-7 2 -12 7t-5 13t6 13.5t14 5.5z" />
    <glyph glyph-name="semicolon" unicode=";" horiz-adv-x="163" 
d="M31 339q-8 0 -13.5 5.5t-5.5 13.5t5.5 14t13.5 6t14 -6t6 -14t-6 -13.5t-14 -5.5zM28 20h23l-41 -118h-10z" />
    <glyph glyph-name="equal" unicode="=" horiz-adv-x="402" 
d="M0 285h325v-19h-325v19zM325 430v-19h-325v19h325z" />
    <glyph glyph-name="question" unicode="?" horiz-adv-x="505" 
d="M208 715q43 0 81 -17t66 -46.5t44.5 -68.5t16.5 -83q0 -45 -16 -84.5t-45 -68.5l-78 -78q0 -1 -8.5 -8.5t-18.5 -25t-18 -47t-8 -72.5h-20q0 47 8.5 78.5t19 50t20 27t10.5 9.5l93 94q20 26 31.5 58t11.5 67q0 40 -15 76t-40.5 62.5t-60.5 42t-74 15.5t-73.5 -15.5
t-60.5 -42t-41 -62.5t-15 -76h-18q0 44 16.5 83t44.5 68.5t66 46.5t81 17zM216 39q8 0 14 -5.5t6 -13.5t-6 -14t-14 -6t-14 6t-6 14t6 13.5t14 5.5z" />
    <glyph glyph-name="at" unicode="@" horiz-adv-x="1121" 
d="M488 18q40 0 76 15.5t63 42.5t42.5 62.5t15.5 76.5t-15.5 77t-42.5 62.5t-63 42t-76 15.5q-41 0 -77 -15.5t-63 -42t-42.5 -62.5t-15.5 -77t15.5 -76.5t42.5 -62.5t63 -42.5t77 -15.5zM1004 102q-19 -45 -60 -72.5t-93 -27.5q-30 0 -57 10t-48.5 27.5t-36.5 41.5t-21 52
l-3 -7q-28 -55 -79.5 -90.5t-117.5 -35.5q-45 0 -84.5 17t-69 46t-46.5 68t-17 84t17 84.5t46.5 69t69 46.5t84.5 17q66 0 118.5 -35.5t78.5 -92.5v128h19v-189v-79q0 -30 12 -56t32 -45.5t46.5 -30.5t56.5 -11q45 0 81.5 23t54.5 61q6 18 9.5 29.5t4.5 23t1 24.5v33
q0 99 -38.5 186t-105.5 152.5t-156 103t-191 37.5t-191.5 -37.5t-156 -103t-105.5 -152.5t-39 -186q0 -66 17.5 -127t49.5 -114t77 -96.5t100 -75t117.5 -48.5t130.5 -17q81 0 154.5 24.5t135.5 68.5h32q-66 -53 -148 -82.5t-174 -29.5q-106 0 -199 39.5t-162.5 107
t-109.5 158t-40 192.5q0 103 40 194t109.5 158.5t162.5 107t199 39.5q105 0 198 -39.5t162.5 -107t109.5 -158.5t40 -194v-26.5t-1 -20.5t-2 -17t-4 -18q-3 -17 -10 -31z" />
    <glyph glyph-name="A" unicode="A" horiz-adv-x="750" 
d="M515 259l-190 432l-190 -432h380zM523 239h-396l-106 -239h-21l314 715h21l315 -715h-21z" />
    <glyph glyph-name="B" unicode="B" horiz-adv-x="578" 
d="M295 19q34 0 64 13t52 35.5t35 52t13 63.5t-13 64t-35 52.5t-52 35.5t-64 13h-276v-329h276v0zM19 367h238q34 0 63.5 13t51.5 35.5t35 52t13 63.5t-13 64t-35 52.5t-51.5 35.5t-63.5 13h-238v-329zM331 364q31 -6 58 -22.5t47 -40.5t31 -54t11 -64q0 -38 -14.5 -71.5
t-39 -58t-58 -39t-71.5 -14.5h-295v715h257q38 0 71.5 -14.5t58 -39.5t39 -58.5t14.5 -71.5q0 -56 -30.5 -101t-78.5 -66z" />
    <glyph glyph-name="C" unicode="C" horiz-adv-x="808" 
d="M708 293q-11 -63 -43 -116.5t-78.5 -92.5t-105 -61.5t-124.5 -22.5q-74 0 -139 28t-113.5 76.5t-76.5 113.5t-28 139t28 139.5t76.5 114t113.5 76.5t139 28q66 0 124.5 -22.5t105 -62t78.5 -93t43 -115.5h-19q-11 58 -41.5 108.5t-74.5 87t-99.5 57.5t-116.5 21
q-70 0 -131.5 -26.5t-107.5 -72.5t-72.5 -108t-26.5 -132t26.5 -131.5t72.5 -107.5t107.5 -72.5t131.5 -26.5q61 0 116.5 21t99.5 57.5t74.5 86.5t41.5 109h19z" />
    <glyph glyph-name="D" unicode="D" horiz-adv-x="674" 
d="M217 19q70 0 132 26.5t108 72.5t72.5 107.5t26.5 131.5t-26.5 132t-72.5 108t-108 72.5t-132 26.5h-198v-677h198v0zM217 715q74 0 139 -28t113.5 -76.5t76.5 -114t28 -139.5t-28 -139t-76.5 -113.5t-113.5 -76.5t-139 -28h-216h-1v715h1h216v0z" />
    <glyph glyph-name="E" unicode="E" horiz-adv-x="550" 
d="M19 696v-329h315v-19h-315v-329h431v-19h-450v715h450v-19h-431z" />
    <glyph glyph-name="F" unicode="F" horiz-adv-x="569" 
d="M19 0h-19v715h469v-19h-450v-329h334v-19h-334v-348z" />
    <glyph glyph-name="G" unicode="G" horiz-adv-x="808" 
d="M708 293q-11 -63 -43 -116.5t-78.5 -92.5t-105 -61.5t-124.5 -22.5q-74 0 -139 28t-113.5 76.5t-76.5 113.5t-28 139t28 139.5t76.5 114t113.5 76.5t139 28q66 0 124.5 -22.5t105 -62t78.5 -93t43 -115.5h-19q-11 58 -41.5 108.5t-74.5 87t-99.5 57.5t-116.5 21
q-70 0 -131.5 -26.5t-107.5 -72.5t-72.5 -108t-26.5 -132t26.5 -131.5t72.5 -107.5t107.5 -72.5t131.5 -26.5q59 0 112.5 19t96.5 53t74 81t45 102h-308v19h331z" />
    <glyph glyph-name="H" unicode="H" horiz-adv-x="663" 
d="M563 715v-715h-19v348h-525v-348l-19 -3v718h19v-348h525v348h19z" />
    <glyph glyph-name="I" unicode="I" horiz-adv-x="385" 
d="M152 696v-677h133v-19h-285v19h133v677h-133v19h285v-19h-133z" />
    <glyph glyph-name="J" unicode="J" horiz-adv-x="457" 
d="M357 715v-358q0 -74 -28 -139t-76.5 -113.5t-113.5 -76.5t-139 -28v19q70 0 131.5 26.5t107.5 72.5t72.5 107.5t26.5 131.5v358h19z" />
    <glyph glyph-name="K" unicode="K" horiz-adv-x="593" 
d="M86 380l-67 -67v-313h-19v715h19v-375l375 375h28l-322 -322l393 -393h-27z" />
    <glyph glyph-name="L" unicode="L" horiz-adv-x="553" 
d="M453 19v-19h-453v715h19v-696h434z" />
    <glyph glyph-name="M" unicode="M" horiz-adv-x="785" 
d="M685 715v-715h-19v667l-314 -667h-21l-312 667v-667h-19v715h19v0l323 -691l324 691v0h19z" />
    <glyph glyph-name="N" unicode="N" horiz-adv-x="672" 
d="M572 715v-715h-20l-533 681v-681h-19v715h19v0v0v0v0l533 -682v682h20z" />
    <glyph glyph-name="O" unicode="O" horiz-adv-x="814" 
d="M357 0q-74 0 -139 28t-113.5 76.5t-76.5 113.5t-28 139t28 139.5t76.5 114t113.5 76.5t139 28t139 -28t113.5 -76.5t76.5 -114t28 -139.5t-28 -139t-76.5 -113.5t-113.5 -76.5t-139 -28zM357 696q-70 0 -131.5 -26.5t-107.5 -72.5t-72.5 -108t-26.5 -132t26.5 -131.5
t72.5 -107.5t107.5 -72.5t131.5 -26.5t131.5 26.5t107.5 72.5t72.5 107.5t26.5 131.5t-26.5 132t-72.5 108t-107.5 72.5t-131.5 26.5z" />
    <glyph glyph-name="P" unicode="P" horiz-adv-x="571" 
d="M19 367h269q34 0 63.5 13t51.5 35.5t35 52t13 63.5t-13 64t-35 52.5t-51.5 35.5t-63.5 13h-269v-329zM0 0v715h288q38 0 71.5 -14.5t58 -39.5t39 -58.5t14.5 -71.5t-14.5 -71.5t-39 -58t-58 -39t-71.5 -14.5h-269v-348h-19z" />
    <glyph glyph-name="Q" unicode="Q" horiz-adv-x="814" 
d="M357 19q68 0 127 24.5t105 67.5l-122 122l14 13l122 -121q43 46 67.5 105t24.5 127q0 70 -26.5 132t-72.5 108t-107.5 72.5t-131.5 26.5t-131.5 -26.5t-107.5 -72.5t-72.5 -108t-26.5 -132t26.5 -131.5t72.5 -107.5t107.5 -72.5t131.5 -26.5zM714 357q0 -72 -26 -134.5
t-72 -110.5l98 -98l-14 -14l-98 98q-48 -46 -110.5 -72t-134.5 -26q-74 0 -139 28t-113.5 76.5t-76.5 113.5t-28 139t28 139.5t76.5 114t113.5 76.5t139 28t139 -28t113.5 -76.5t76.5 -114t28 -139.5z" />
    <glyph glyph-name="R" unicode="R" horiz-adv-x="559" 
d="M19 367h257q34 0 63.5 13t52 35.5t35.5 52t13 63.5t-13 64t-35.5 52.5t-52 35.5t-63.5 13h-257v-329zM68 348l391 -348h-27l-391 348h-22v-348h-19v715h276q38 0 71.5 -14.5t58 -39.5t39 -58.5t14.5 -71.5t-14.5 -71.5t-39 -58t-58 -39t-71.5 -14.5h-208z" />
    <glyph glyph-name="S" unicode="S" horiz-adv-x="606" 
d="M329 364q38 -6 70.5 -22t56 -40t37 -54.5t13.5 -64.5q0 -38 -17 -71.5t-47 -58t-70 -39t-86 -14.5h-66q-45 0 -85 14.5t-70 39t-47.5 58t-17.5 71.5v4h23v-4q0 -34 15.5 -63.5t42.5 -52t62.5 -35.5t76.5 -13h66q41 0 77 13t62.5 35.5t42 52t15.5 63.5t-15.5 64t-42 52.5
t-62.5 35.5t-77 13q-42 -2 -70.5 1.5t-46.5 8.5q-21 5 -35 12q-52 31 -81.5 70t-29.5 91q0 38 17.5 71.5t47.5 58.5t70 39.5t85 14.5h20q44 0 83 -13.5t68.5 -37t48 -55.5t20.5 -68h-24q-2 32 -18.5 60.5t-42.5 49.5t-61 33t-74 12h-20q-41 0 -76.5 -13t-62.5 -35.5
t-42.5 -52.5t-15.5 -64t15.5 -63.5t42.5 -52t62.5 -35.5t76.5 -13h32q14 0 28.5 -0.5t25.5 -2.5z" />
    <glyph glyph-name="T" unicode="T" horiz-adv-x="618" 
d="M518 696h-250v-696h-19v696h-249v19h518v-19z" />
    <glyph glyph-name="U" unicode="U" horiz-adv-x="650" 
d="M550 715v-440q0 -57 -21.5 -107t-59 -87.5t-87.5 -59t-107 -21.5t-107 21.5t-87.5 59t-59 87.5t-21.5 107v440h19v-440q0 -53 20 -99.5t55 -81.5t81.5 -55t99.5 -20t99.5 20t81.5 55t55 81.5t20 99.5h-1v440h20z" />
    <glyph glyph-name="V" unicode="V" horiz-adv-x="699" 
d="M19 715l283 -690l278 690h19l-288 -715v0h-19v0l-292 715h19z" />
    <glyph glyph-name="W" unicode="W" horiz-adv-x="934" 
d="M834 715l-194 -715h-19l-204 680l-196 -680h-19l-202 715h19l192 -680l196 680v0h20v0l203 -680l185 680h19z" />
    <glyph glyph-name="X" unicode="X" horiz-adv-x="648" 
d="M286 357l262 -357h-24l-250 341l-250 -341h-24l262 357l-262 358h24l250 -341l250 341h24z" />
    <glyph glyph-name="Y" unicode="Y" horiz-adv-x="648" 
d="M284 354v-354h-20v354v0l-264 361h24l250 -341l250 341h24z" />
    <glyph glyph-name="Z" unicode="Z" horiz-adv-x="612" 
d="M512 696l-489 -677h489v-19h-512v19l489 677h-489v19h512v-19z" />
    <glyph glyph-name="bracketleft" unicode="[" 
 />
    <glyph glyph-name="backslash" unicode="\" horiz-adv-x="361" 
d="M0 715h19l249 -715h-19z" />
    <glyph glyph-name="bracketright" unicode="]" 
 />
    <glyph glyph-name="asciicircum" unicode="^" 
 />
    <glyph glyph-name="underscore" unicode="_" horiz-adv-x="524" 
d="M0 -18v18h402v-18h-402z" />
    <glyph glyph-name="grave" unicode="`" horiz-adv-x="215" 
d="M98 630l-98 85h23l85 -85h-10z" />
    <glyph glyph-name="a" unicode="a" horiz-adv-x="750" 
d="M515 259l-190 432l-190 -432h380zM523 239h-396l-106 -239h-21l314 715h21l315 -715h-21z" />
    <glyph glyph-name="b" unicode="b" horiz-adv-x="578" 
d="M295 19q34 0 64 13t52 35.5t35 52t13 63.5t-13 64t-35 52.5t-52 35.5t-64 13h-276v-329h276v0zM19 367h238q34 0 63.5 13t51.5 35.5t35 52t13 63.5t-13 64t-35 52.5t-51.5 35.5t-63.5 13h-238v-329zM331 364q31 -6 58 -22.5t47 -40.5t31 -54t11 -64q0 -38 -14.5 -71.5
t-39 -58t-58 -39t-71.5 -14.5h-295v715h257q38 0 71.5 -14.5t58 -39.5t39 -58.5t14.5 -71.5q0 -56 -30.5 -101t-78.5 -66z" />
    <glyph glyph-name="c" unicode="c" horiz-adv-x="808" 
d="M708 293q-11 -63 -43 -116.5t-78.5 -92.5t-105 -61.5t-124.5 -22.5q-74 0 -139 28t-113.5 76.5t-76.5 113.5t-28 139t28 139.5t76.5 114t113.5 76.5t139 28q66 0 124.5 -22.5t105 -62t78.5 -93t43 -115.5h-19q-11 58 -41.5 108.5t-74.5 87t-99.5 57.5t-116.5 21
q-70 0 -131.5 -26.5t-107.5 -72.5t-72.5 -108t-26.5 -132t26.5 -131.5t72.5 -107.5t107.5 -72.5t131.5 -26.5q61 0 116.5 21t99.5 57.5t74.5 86.5t41.5 109h19z" />
    <glyph glyph-name="d" unicode="d" horiz-adv-x="674" 
d="M217 19q70 0 132 26.5t108 72.5t72.5 107.5t26.5 131.5t-26.5 132t-72.5 108t-108 72.5t-132 26.5h-198v-677h198v0zM217 715q74 0 139 -28t113.5 -76.5t76.5 -114t28 -139.5t-28 -139t-76.5 -113.5t-113.5 -76.5t-139 -28h-216h-1v715h1h216v0z" />
    <glyph glyph-name="e" unicode="e" horiz-adv-x="550" 
d="M19 696v-329h315v-19h-315v-329h431v-19h-450v715h450v-19h-431z" />
    <glyph glyph-name="f" unicode="f" horiz-adv-x="569" 
d="M19 0h-19v715h469v-19h-450v-329h334v-19h-334v-348z" />
    <glyph glyph-name="g" unicode="g" horiz-adv-x="808" 
d="M708 293q-11 -63 -43 -116.5t-78.5 -92.5t-105 -61.5t-124.5 -22.5q-74 0 -139 28t-113.5 76.5t-76.5 113.5t-28 139t28 139.5t76.5 114t113.5 76.5t139 28q66 0 124.5 -22.5t105 -62t78.5 -93t43 -115.5h-19q-11 58 -41.5 108.5t-74.5 87t-99.5 57.5t-116.5 21
q-70 0 -131.5 -26.5t-107.5 -72.5t-72.5 -108t-26.5 -132t26.5 -131.5t72.5 -107.5t107.5 -72.5t131.5 -26.5q59 0 112.5 19t96.5 53t74 81t45 102h-308v19h331z" />
    <glyph glyph-name="h" unicode="h" horiz-adv-x="663" 
d="M563 715v-715h-19v348h-525v-348l-19 -3v718h19v-348h525v348h19z" />
    <glyph glyph-name="i" unicode="i" horiz-adv-x="385" 
d="M152 696v-677h133v-19h-285v19h133v677h-133v19h285v-19h-133z" />
    <glyph glyph-name="j" unicode="j" horiz-adv-x="457" 
d="M357 715v-358q0 -74 -28 -139t-76.5 -113.5t-113.5 -76.5t-139 -28v19q70 0 131.5 26.5t107.5 72.5t72.5 107.5t26.5 131.5v358h19z" />
    <glyph glyph-name="k" unicode="k" horiz-adv-x="593" 
d="M86 380l-67 -67v-313h-19v715h19v-375l375 375h28l-322 -322l393 -393h-27z" />
    <glyph glyph-name="l" unicode="l" horiz-adv-x="553" 
d="M453 19v-19h-453v715h19v-696h434z" />
    <glyph glyph-name="m" unicode="m" horiz-adv-x="785" 
d="M685 715v-715h-19v667l-314 -667h-21l-312 667v-667h-19v715h19v0l323 -691l324 691v0h19z" />
    <glyph glyph-name="n" unicode="n" horiz-adv-x="672" 
d="M572 715v-715h-20l-533 681v-681h-19v715h19v0v0v0v0l533 -682v682h20z" />
    <glyph glyph-name="o" unicode="o" horiz-adv-x="814" 
d="M357 0q-74 0 -139 28t-113.5 76.5t-76.5 113.5t-28 139t28 139.5t76.5 114t113.5 76.5t139 28t139 -28t113.5 -76.5t76.5 -114t28 -139.5t-28 -139t-76.5 -113.5t-113.5 -76.5t-139 -28zM357 696q-70 0 -131.5 -26.5t-107.5 -72.5t-72.5 -108t-26.5 -132t26.5 -131.5
t72.5 -107.5t107.5 -72.5t131.5 -26.5t131.5 26.5t107.5 72.5t72.5 107.5t26.5 131.5t-26.5 132t-72.5 108t-107.5 72.5t-131.5 26.5z" />
    <glyph glyph-name="p" unicode="p" horiz-adv-x="571" 
d="M19 367h269q34 0 63.5 13t51.5 35.5t35 52t13 63.5t-13 64t-35 52.5t-51.5 35.5t-63.5 13h-269v-329zM0 0v715h288q38 0 71.5 -14.5t58 -39.5t39 -58.5t14.5 -71.5t-14.5 -71.5t-39 -58t-58 -39t-71.5 -14.5h-269v-348h-19z" />
    <glyph glyph-name="q" unicode="q" horiz-adv-x="814" 
d="M357 19q68 0 127 24.5t105 67.5l-122 122l14 13l122 -121q43 46 67.5 105t24.5 127q0 70 -26.5 132t-72.5 108t-107.5 72.5t-131.5 26.5t-131.5 -26.5t-107.5 -72.5t-72.5 -108t-26.5 -132t26.5 -131.5t72.5 -107.5t107.5 -72.5t131.5 -26.5zM714 357q0 -72 -26 -134.5
t-72 -110.5l98 -98l-14 -14l-98 98q-48 -46 -110.5 -72t-134.5 -26q-74 0 -139 28t-113.5 76.5t-76.5 113.5t-28 139t28 139.5t76.5 114t113.5 76.5t139 28t139 -28t113.5 -76.5t76.5 -114t28 -139.5z" />
    <glyph glyph-name="r" unicode="r" horiz-adv-x="559" 
d="M19 367h257q34 0 63.5 13t52 35.5t35.5 52t13 63.5t-13 64t-35.5 52.5t-52 35.5t-63.5 13h-257v-329zM68 348l391 -348h-27l-391 348h-22v-348h-19v715h276q38 0 71.5 -14.5t58 -39.5t39 -58.5t14.5 -71.5t-14.5 -71.5t-39 -58t-58 -39t-71.5 -14.5h-208z" />
    <glyph glyph-name="s" unicode="s" horiz-adv-x="606" 
d="M329 364q38 -6 70.5 -22t56 -40t37 -54.5t13.5 -64.5q0 -38 -17 -71.5t-47 -58t-70 -39t-86 -14.5h-66q-45 0 -85 14.5t-70 39t-47.5 58t-17.5 71.5v4h23v-4q0 -34 15.5 -63.5t42.5 -52t62.5 -35.5t76.5 -13h66q41 0 77 13t62.5 35.5t42 52t15.5 63.5t-15.5 64t-42 52.5
t-62.5 35.5t-77 13q-42 -2 -70.5 1.5t-46.5 8.5q-21 5 -35 12q-52 31 -81.5 70t-29.5 91q0 38 17.5 71.5t47.5 58.5t70 39.5t85 14.5h20q44 0 83 -13.5t68.5 -37t48 -55.5t20.5 -68h-24q-2 32 -18.5 60.5t-42.5 49.5t-61 33t-74 12h-20q-41 0 -76.5 -13t-62.5 -35.5
t-42.5 -52.5t-15.5 -64t15.5 -63.5t42.5 -52t62.5 -35.5t76.5 -13h32q14 0 28.5 -0.5t25.5 -2.5z" />
    <glyph glyph-name="t" unicode="t" horiz-adv-x="618" 
d="M518 696h-250v-696h-19v696h-249v19h518v-19z" />
    <glyph glyph-name="u" unicode="u" horiz-adv-x="650" 
d="M550 715v-440q0 -57 -21.5 -107t-59 -87.5t-87.5 -59t-107 -21.5t-107 21.5t-87.5 59t-59 87.5t-21.5 107v440h19v-440q0 -53 20 -99.5t55 -81.5t81.5 -55t99.5 -20t99.5 20t81.5 55t55 81.5t20 99.5h-1v440h20z" />
    <glyph glyph-name="v" unicode="v" horiz-adv-x="699" 
d="M19 715l283 -690l278 690h19l-288 -715v0h-19v0l-292 715h19z" />
    <glyph glyph-name="w" unicode="w" horiz-adv-x="934" 
d="M834 715l-194 -715h-19l-204 680l-196 -680h-19l-202 715h19l192 -680l196 680v0h20v0l203 -680l185 680h19z" />
    <glyph glyph-name="x" unicode="x" horiz-adv-x="648" 
d="M286 357l262 -357h-24l-250 341l-250 -341h-24l262 357l-262 358h24l250 -341l250 341h24z" />
    <glyph glyph-name="y" unicode="y" horiz-adv-x="648" 
d="M284 354v-354h-20v354v0l-264 361h24l250 -341l250 341h24z" />
    <glyph glyph-name="z" unicode="z" horiz-adv-x="612" 
d="M512 696l-489 -677h489v-19h-512v19l489 677h-489v19h512v-19z" />
    <glyph glyph-name="asciitilde" unicode="~" horiz-adv-x="241" 
d="M128 687q-13 -22 -32 -22q-8 0 -15 2.5t-14 6.5t-16 7.5t-20 3.5q-10 0 -15.5 -5.5t-9.5 -12.5l-6 10q12 21 33 21q7 0 15 -2.5t16 -6.5q23 -11 32 -11t15 5.5t11 12.5z" />
    <glyph glyph-name="circumflex" unicode="&#x2c6;" horiz-adv-x="309" 
d="M101 709l-91 -79h-10l85 85h32l85 -85h-10z" />
    <glyph glyph-name="quoteleft" unicode="&#x2018;" horiz-adv-x="160" 
d="M23 596h-23l41 119h10z" />
    <glyph glyph-name="quoteright" unicode="&#x2019;" horiz-adv-x="159" 
d="M51 715l-41 -119h-10l28 119h23z" />
    <glyph glyph-name="quotedblleft" unicode="&#x201c;" horiz-adv-x="237" 
d="M0 596l41 119h10l-28 -119h-23zM101 596h-23l40 119h11z" />
    <glyph glyph-name="quotedblright" unicode="&#x201d;" horiz-adv-x="237" 
d="M129 715l-41 -119h-10l27 119h24zM28 715h23l-41 -119h-10z" />
    <glyph glyph-name="endash" unicode="&#x2013;" horiz-adv-x="456" 
d="M0 338v19h333v-19h-333z" />
    <glyph glyph-name="emdash" unicode="&#x2014;" horiz-adv-x="456" 
d="M0 338v19h333v-19h-333z" />
    <glyph glyph-name="exclamdown" unicode="&#xa1;" horiz-adv-x="151" 
d="M14 606h19v-605h-19v605zM23 676q-19 0 -19 19q0 8 5.5 14t13.5 6t14 -6t6 -14t-6 -13.5t-14 -5.5z" />
    <glyph glyph-name="brokenbar" unicode="&#xa6;" horiz-adv-x="1000" 
 />
    <glyph glyph-name="dieresis" unicode="&#xa8;" horiz-adv-x="318" 
d="M174 699q11 0 18.5 -8t7.5 -19t-7.5 -18.5t-18.5 -7.5t-19 7.5t-8 18.5t8 19t19 8zM27 699q11 0 18.5 -8t7.5 -19t-7.5 -18.5t-18.5 -7.5t-19 7.5t-8 18.5t8 19t19 8z" />
    <glyph glyph-name="acute" unicode="&#xb4;" horiz-adv-x="213" 
d="M108 715l-98 -85h-10l85 85h23z" />
    <glyph glyph-name="questiondown" unicode="&#xbf;" horiz-adv-x="483" 
d="M208 0q-43 0 -81 17t-66 46t-44.5 68.5t-16.5 83.5q0 45 16.5 84.5t45.5 68.5l77 78q1 1 9.5 8.5t18.5 25t18 46.5t8 73h19q0 -47 -8.5 -78.5t-19 -50t-20 -27t-10.5 -9.5l-92 -94q-20 -26 -32 -58t-12 -67q0 -41 15 -76.5t40.5 -62t60.5 -42t74 -15.5t74 15.5t60.5 42
t40.5 62t15 76.5h18q0 -44 -16.5 -83.5t-44.5 -68.5t-66 -46t-81 -17zM200 676q-8 0 -14 5.5t-6 13.5t6 14t14 6t14 -6t6 -14t-6 -13.5t-14 -5.5z" />
    <glyph glyph-name="Agrave" unicode="&#xc0;" horiz-adv-x="739" 
d="M319 765l-98 85h23l85 -85h-10zM515 259l-190 432l-190 -432h380zM523 239h-396l-106 -239h-21l314 715h21l315 -715h-21z" />
    <glyph glyph-name="Aacute" unicode="&#xc1;" horiz-adv-x="739" 
d="M434 850l-99 -85h-10l85 85h24zM515 259l-190 432l-190 -432h380zM523 239h-396l-106 -239h-21l314 715h21l315 -715h-21z" />
    <glyph glyph-name="Acircumflex" unicode="&#xc2;" horiz-adv-x="739" 
d="M323 844l-91 -79h-10l85 85h32l85 -85h-10zM515 259l-190 432l-190 -432h380zM523 239h-396l-106 -239h-21l314 715h21l315 -715h-21z" />
    <glyph glyph-name="Atilde" unicode="&#xc3;" horiz-adv-x="739" 
d="M384 787q-15 -22 -33 -22q-8 0 -15 3t-13 6q-8 5 -17 8t-20 3q-9 0 -15 -5.5t-10 -11.5l-6 9q12 21 33 21q8 0 15.5 -2.5t15.5 -6.5q27 -11 32 -11q9 0 15 5.5t11 12.5zM515 259l-190 432l-190 -432h380zM523 239h-396l-106 -239h-21l314 715h21l315 -715h-21z" />
    <glyph glyph-name="Adieresis" unicode="&#xc4;" horiz-adv-x="739" 
d="M396 818q11 0 19 -7.5t8 -18.5t-8 -19t-19 -8t-19 8t-8 19t8 18.5t19 7.5zM249 818q11 0 19 -7.5t8 -18.5t-8 -19t-19 -8t-19 8t-8 19t8 18.5t19 7.5zM515 259l-190 432l-190 -432h380zM523 239h-396l-106 -239h-21l314 715h21l315 -715h-21z" />
    <glyph glyph-name="Aring" unicode="&#xc5;" 
 />
    <glyph glyph-name="AE" unicode="&#xc6;" 
 />
    <glyph glyph-name="Ccedilla" unicode="&#xc7;" horiz-adv-x="785" 
d="M357 19q61 0 116.5 21t99.5 57.5t74.5 86.5t41.5 109h19q-11 -62 -42.5 -115t-77.5 -92.5t-104 -62t-123 -23.5v-28q14 10 34 10q28 0 47 -19t19 -47q0 -27 -19 -46.5t-47 -19.5q-23 0 -41 15t-23 37h20q5 -14 16.5 -23t27.5 -9q20 0 33.5 13.5t13.5 32.5
q0 20 -13.5 33.5t-33.5 13.5q-21 0 -34 -15h-24v52q-71 4 -132 33.5t-107 77.5t-72 111.5t-26 134.5q0 74 28 139t76.5 114t113.5 77t139 28q66 0 124.5 -22.5t105 -62t78.5 -93t43 -115.5h-19q-11 58 -41.5 108.5t-74.5 87t-99.5 57.5t-116.5 21q-70 0 -131.5 -26.5
t-107.5 -72.5t-72.5 -108t-26.5 -132t26.5 -131.5t72.5 -107.5t107.5 -72.5t131.5 -26.5z" />
    <glyph glyph-name="Egrave" unicode="&#xc8;" horiz-adv-x="486" 
d="M216 765l-98 85h23l85 -85h-10zM19 696v-329h315v-19h-315v-329h431v-19h-450v715h450v-19h-431z" />
    <glyph glyph-name="Eacute" unicode="&#xc9;" horiz-adv-x="486" 
d="M305 850l-98 -85h-10l85 85h23zM19 696v-329h315v-19h-315v-329h431v-19h-450v715h450v-19h-431z" />
    <glyph glyph-name="Ecircumflex" unicode="&#xca;" horiz-adv-x="486" 
d="M216 844l-91 -79h-10l85 85h32l85 -85h-10zM19 696v-329h315v-19h-315v-329h431v-19h-450v715h450v-19h-431z" />
    <glyph glyph-name="Edieresis" unicode="&#xcb;" horiz-adv-x="486" 
d="M295 818q11 0 19 -7.5t8 -18.5t-8 -19t-19 -8t-19 8t-8 19t8 18.5t19 7.5zM148 818q11 0 19 -7.5t8 -18.5t-8 -19t-19 -8t-19 8t-8 19t8 18.5t19 7.5zM19 696v-329h315v-19h-315v-329h431v-19h-450v715h450v-19h-431z" />
    <glyph glyph-name="Igrave" unicode="&#xcc;" horiz-adv-x="372" 
d="M176 765l-98 85h23l85 -85h-10zM152 696v-677h133v-19h-285v19h133v677h-133v19h285v-19h-133z" />
    <glyph glyph-name="Iacute" unicode="&#xcd;" horiz-adv-x="372" 
d="M246 850l-98 -85h-10l85 85h23zM152 696v-677h133v-19h-285v19h133v677h-133v19h285v-19h-133z" />
    <glyph glyph-name="Icircumflex" unicode="&#xce;" horiz-adv-x="372" 
d="M142 844l-90 -79h-11l85 85h32l85 -85h-10zM152 696v-677h133v-19h-285v19h133v677h-133v19h285v-19h-133z" />
    <glyph glyph-name="Idieresis" unicode="&#xcf;" horiz-adv-x="372" 
d="M214 818q11 0 19 -7.5t8 -18.5t-8 -19t-19 -8t-19 8t-8 19t8 18.5t19 7.5zM67 818q11 0 19 -7.5t8 -18.5t-8 -19t-19 -8t-19 8t-8 19t8 18.5t19 7.5zM152 696v-677h133v-19h-285v19h133v677h-133v19h285v-19h-133z" />
    <glyph glyph-name="Eth" unicode="&#xd0;" 
 />
    <glyph glyph-name="Ntilde" unicode="&#xd1;" horiz-adv-x="682" 
d="M337 787q-15 -22 -33 -22q-8 0 -15 3t-13 6q-8 5 -17 8t-20 3q-9 0 -15 -5.5t-10 -11.5l-6 9q12 21 33 21q8 0 15.5 -2.5t15.5 -6.5q27 -11 32 -11q9 0 15 5.5t11 12.5zM572 715v-715h-20l-533 681v-681h-19v715h19l533 -682v682h20z" />
    <glyph glyph-name="Ograve" unicode="&#xd2;" horiz-adv-x="814" 
d="M389 765l-98 85h23l85 -85h-10zM357 696q70 0 131.5 -26.5t107.5 -72.5t72.5 -108t26.5 -132t-26.5 -131.5t-72.5 -107.5t-107.5 -72.5t-131.5 -26.5t-131.5 26.5t-107.5 72.5t-72.5 107.5t-26.5 131.5t26.5 132t72.5 108t107.5 72.5t131.5 26.5zM357 0q74 0 139 28
t113.5 76.5t76.5 113.5t28 139t-28 139.5t-76.5 114t-113.5 76.5t-139 28t-139 -28t-113.5 -76.5t-76.5 -114t-28 -139.5t28 -139t76.5 -113.5t113.5 -76.5t139 -28z" />
    <glyph glyph-name="Oacute" unicode="&#xd3;" horiz-adv-x="814" 
d="M455 850l-98 -85h-10l85 85h23zM357 696q70 0 131.5 -26.5t107.5 -72.5t72.5 -108t26.5 -132t-26.5 -131.5t-72.5 -107.5t-107.5 -72.5t-131.5 -26.5t-131.5 26.5t-107.5 72.5t-72.5 107.5t-26.5 131.5t26.5 132t72.5 108t107.5 72.5t131.5 26.5zM357 0q74 0 139 28
t113.5 76.5t76.5 113.5t28 139t-28 139.5t-76.5 114t-113.5 76.5t-139 28t-139 -28t-113.5 -76.5t-76.5 -114t-28 -139.5t28 -139t76.5 -113.5t113.5 -76.5t139 -28z" />
    <glyph glyph-name="Ocircumflex" unicode="&#xd4;" horiz-adv-x="814" 
d="M357 844l-90 -79h-11l85 85h32l85 -85h-10zM357 696q70 0 131.5 -26.5t107.5 -72.5t72.5 -108t26.5 -132t-26.5 -131.5t-72.5 -107.5t-107.5 -72.5t-131.5 -26.5t-131.5 26.5t-107.5 72.5t-72.5 107.5t-26.5 131.5t26.5 132t72.5 108t107.5 72.5t131.5 26.5zM357 0
q74 0 139 28t113.5 76.5t76.5 113.5t28 139t-28 139.5t-76.5 114t-113.5 76.5t-139 28t-139 -28t-113.5 -76.5t-76.5 -114t-28 -139.5t28 -139t76.5 -113.5t113.5 -76.5t139 -28z" />
    <glyph glyph-name="Otilde" unicode="&#xd5;" horiz-adv-x="814" 
d="M420 787q-15 -22 -33 -22q-8 0 -15 3t-13 6q-8 5 -17 8t-20 3q-9 0 -15 -5.5t-10 -11.5l-6 9q12 21 33 21q8 0 15.5 -2.5t15.5 -6.5q27 -11 32 -11q9 0 15 5.5t11 12.5zM357 696q70 0 131.5 -26.5t107.5 -72.5t72.5 -108t26.5 -132t-26.5 -131.5t-72.5 -107.5
t-107.5 -72.5t-131.5 -26.5t-131.5 26.5t-107.5 72.5t-72.5 107.5t-26.5 131.5t26.5 132t72.5 108t107.5 72.5t131.5 26.5zM357 0q74 0 139 28t113.5 76.5t76.5 113.5t28 139t-28 139.5t-76.5 114t-113.5 76.5t-139 28t-139 -28t-113.5 -76.5t-76.5 -114t-28 -139.5t28 -139
t76.5 -113.5t113.5 -76.5t139 -28z" />
    <glyph glyph-name="Odieresis" unicode="&#xd6;" horiz-adv-x="814" 
d="M428 818q11 0 19 -7.5t8 -18.5t-8 -19t-19 -8t-19 8t-8 19t8 18.5t19 7.5zM281 818q11 0 19 -7.5t8 -18.5t-8 -19t-19 -8t-19 8t-8 19t8 18.5t19 7.5zM357 696q70 0 131.5 -26.5t107.5 -72.5t72.5 -108t26.5 -132t-26.5 -131.5t-72.5 -107.5t-107.5 -72.5t-131.5 -26.5
t-131.5 26.5t-107.5 72.5t-72.5 107.5t-26.5 131.5t26.5 132t72.5 108t107.5 72.5t131.5 26.5zM357 0q74 0 139 28t113.5 76.5t76.5 113.5t28 139t-28 139.5t-76.5 114t-113.5 76.5t-139 28t-139 -28t-113.5 -76.5t-76.5 -114t-28 -139.5t28 -139t76.5 -113.5t113.5 -76.5
t139 -28z" />
    <glyph glyph-name="multiply" unicode="&#xd7;" 
 />
    <glyph glyph-name="Oslash" unicode="&#xd8;" 
 />
    <glyph glyph-name="Ugrave" unicode="&#xd9;" horiz-adv-x="662" 
d="M298 765l-98 85h23l85 -85h-10zM550 715v-440q0 -57 -21.5 -107t-59 -87.5t-87.5 -59t-107 -21.5t-107 21.5t-87.5 59t-59 87.5t-21.5 107v440h19v-440q0 -53 20 -99.5t55 -81.5t81.5 -55t99.5 -20t99.5 20t81.5 55t55 81.5t20 99.5h-1v440h20z" />
    <glyph glyph-name="Uacute" unicode="&#xda;" horiz-adv-x="662" 
d="M358 850l-98 -85h-10l85 85h23zM550 715v-440q0 -57 -21.5 -107t-59 -87.5t-87.5 -59t-107 -21.5t-107 21.5t-87.5 59t-59 87.5t-21.5 107v440h19v-440q0 -53 20 -99.5t55 -81.5t81.5 -55t99.5 -20t99.5 20t81.5 55t55 81.5t20 99.5h-1v440h20z" />
    <glyph glyph-name="Ucircumflex" unicode="&#xdb;" horiz-adv-x="662" 
d="M270 844l-90 -79h-11l85 85h32l85 -85h-10zM550 715v-440q0 -57 -21.5 -107t-59 -87.5t-87.5 -59t-107 -21.5t-107 21.5t-87.5 59t-59 87.5t-21.5 107v440h19v-440q0 -53 20 -99.5t55 -81.5t81.5 -55t99.5 -20t99.5 20t81.5 55t55 81.5t20 99.5h-1v440h20z" />
    <glyph glyph-name="Udieresis" unicode="&#xdc;" horiz-adv-x="662" 
d="M333 818q11 0 19 -7.5t8 -18.5t-8 -19t-19 -8t-19 8t-8 19t8 18.5t19 7.5zM186 818q11 0 19 -7.5t8 -18.5t-8 -19t-19 -8t-19 8t-8 19t8 18.5t19 7.5zM550 715v-440q0 -57 -21.5 -107t-59 -87.5t-87.5 -59t-107 -21.5t-107 21.5t-87.5 59t-59 87.5t-21.5 107v440h19v-440
q0 -53 20 -99.5t55 -81.5t81.5 -55t99.5 -20t99.5 20t81.5 55t55 81.5t20 99.5h-1v440h20z" />
    <glyph glyph-name="Yacute" unicode="&#xdd;" 
 />
    <glyph glyph-name="Thorn" unicode="&#xde;" 
 />
    <glyph glyph-name="germandbls" unicode="&#xdf;" 
 />
    <glyph glyph-name="agrave" unicode="&#xe0;" horiz-adv-x="739" 
d="M319 765l-98 85h23l85 -85h-10zM515 259l-190 432l-190 -432h380zM523 239h-396l-106 -239h-21l314 715h21l315 -715h-21z" />
    <glyph glyph-name="aacute" unicode="&#xe1;" horiz-adv-x="739" 
d="M434 850l-99 -85h-10l85 85h24zM515 259l-190 432l-190 -432h380zM523 239h-396l-106 -239h-21l314 715h21l315 -715h-21z" />
    <glyph glyph-name="acircumflex" unicode="&#xe2;" horiz-adv-x="739" 
d="M323 844l-91 -79h-10l85 85h32l85 -85h-10zM515 259l-190 432l-190 -432h380zM523 239h-396l-106 -239h-21l314 715h21l315 -715h-21z" />
    <glyph glyph-name="atilde" unicode="&#xe3;" horiz-adv-x="739" 
d="M384 787q-15 -22 -33 -22q-8 0 -15 3t-13 6q-8 5 -17 8t-20 3q-9 0 -15 -5.5t-10 -11.5l-6 9q12 21 33 21q8 0 15.5 -2.5t15.5 -6.5q27 -11 32 -11q9 0 15 5.5t11 12.5zM515 259l-190 432l-190 -432h380zM523 239h-396l-106 -239h-21l314 715h21l315 -715h-21z" />
    <glyph glyph-name="adieresis" unicode="&#xe4;" horiz-adv-x="739" 
d="M396 818q11 0 19 -7.5t8 -18.5t-8 -19t-19 -8t-19 8t-8 19t8 18.5t19 7.5zM249 818q11 0 19 -7.5t8 -18.5t-8 -19t-19 -8t-19 8t-8 19t8 18.5t19 7.5zM515 259l-190 432l-190 -432h380zM523 239h-396l-106 -239h-21l314 715h21l315 -715h-21z" />
    <glyph glyph-name="aring" unicode="&#xe5;" 
 />
    <glyph glyph-name="ae" unicode="&#xe6;" 
 />
    <glyph glyph-name="ccedilla" unicode="&#xe7;" horiz-adv-x="785" 
d="M357 19q61 0 116.5 21t99.5 57.5t74.5 86.5t41.5 109h19q-11 -62 -42.5 -115t-77.5 -92.5t-104 -62t-123 -23.5v-28q14 10 34 10q28 0 47 -19t19 -47q0 -27 -19 -46.5t-47 -19.5q-23 0 -41 15t-23 37h20q5 -14 16.5 -23t27.5 -9q20 0 33.5 13.5t13.5 32.5
q0 20 -13.5 33.5t-33.5 13.5q-21 0 -34 -15h-24v52q-71 4 -132 33.5t-107 77.5t-72 111.5t-26 134.5q0 74 28 139t76.5 114t113.5 77t139 28q66 0 124.5 -22.5t105 -62t78.5 -93t43 -115.5h-19q-11 58 -41.5 108.5t-74.5 87t-99.5 57.5t-116.5 21q-70 0 -131.5 -26.5
t-107.5 -72.5t-72.5 -108t-26.5 -132t26.5 -131.5t72.5 -107.5t107.5 -72.5t131.5 -26.5z" />
    <glyph glyph-name="egrave" unicode="&#xe8;" horiz-adv-x="486" 
d="M216 765l-98 85h23l85 -85h-10zM19 696v-329h315v-19h-315v-329h431v-19h-450v715h450v-19h-431z" />
    <glyph glyph-name="eacute" unicode="&#xe9;" horiz-adv-x="486" 
d="M305 850l-98 -85h-10l85 85h23zM19 696v-329h315v-19h-315v-329h431v-19h-450v715h450v-19h-431z" />
    <glyph glyph-name="ecircumflex" unicode="&#xea;" horiz-adv-x="486" 
d="M216 844l-91 -79h-10l85 85h32l85 -85h-10zM19 696v-329h315v-19h-315v-329h431v-19h-450v715h450v-19h-431z" />
    <glyph glyph-name="edieresis" unicode="&#xeb;" horiz-adv-x="486" 
d="M295 818q11 0 19 -7.5t8 -18.5t-8 -19t-19 -8t-19 8t-8 19t8 18.5t19 7.5zM148 818q11 0 19 -7.5t8 -18.5t-8 -19t-19 -8t-19 8t-8 19t8 18.5t19 7.5zM19 696v-329h315v-19h-315v-329h431v-19h-450v715h450v-19h-431z" />
    <glyph glyph-name="igrave" unicode="&#xec;" horiz-adv-x="372" 
d="M176 765l-98 85h23l85 -85h-10zM152 696v-677h133v-19h-285v19h133v677h-133v19h285v-19h-133z" />
    <glyph glyph-name="iacute" unicode="&#xed;" horiz-adv-x="372" 
d="M246 850l-98 -85h-10l85 85h23zM152 696v-677h133v-19h-285v19h133v677h-133v19h285v-19h-133z" />
    <glyph glyph-name="icircumflex" unicode="&#xee;" horiz-adv-x="372" 
d="M142 844l-90 -79h-11l85 85h32l85 -85h-10zM152 696v-677h133v-19h-285v19h133v677h-133v19h285v-19h-133z" />
    <glyph glyph-name="idieresis" unicode="&#xef;" horiz-adv-x="372" 
d="M214 818q11 0 19 -7.5t8 -18.5t-8 -19t-19 -8t-19 8t-8 19t8 18.5t19 7.5zM67 818q11 0 19 -7.5t8 -18.5t-8 -19t-19 -8t-19 8t-8 19t8 18.5t19 7.5zM152 696v-677h133v-19h-285v19h133v677h-133v19h285v-19h-133z" />
    <glyph glyph-name="eth" unicode="&#xf0;" 
 />
    <glyph glyph-name="ntilde" unicode="&#xf1;" horiz-adv-x="682" 
d="M337 787q-15 -22 -33 -22q-8 0 -15 3t-13 6q-8 5 -17 8t-20 3q-9 0 -15 -5.5t-10 -11.5l-6 9q12 21 33 21q8 0 15.5 -2.5t15.5 -6.5q27 -11 32 -11q9 0 15 5.5t11 12.5zM572 715v-715h-20l-533 681v-681h-19v715h19l533 -682v682h20z" />
    <glyph glyph-name="ograve" unicode="&#xf2;" horiz-adv-x="814" 
d="M389 765l-98 85h23l85 -85h-10zM357 696q70 0 131.5 -26.5t107.5 -72.5t72.5 -108t26.5 -132t-26.5 -131.5t-72.5 -107.5t-107.5 -72.5t-131.5 -26.5t-131.5 26.5t-107.5 72.5t-72.5 107.5t-26.5 131.5t26.5 132t72.5 108t107.5 72.5t131.5 26.5zM357 0q74 0 139 28
t113.5 76.5t76.5 113.5t28 139t-28 139.5t-76.5 114t-113.5 76.5t-139 28t-139 -28t-113.5 -76.5t-76.5 -114t-28 -139.5t28 -139t76.5 -113.5t113.5 -76.5t139 -28z" />
    <glyph glyph-name="oacute" unicode="&#xf3;" horiz-adv-x="814" 
d="M455 850l-98 -85h-10l85 85h23zM357 696q70 0 131.5 -26.5t107.5 -72.5t72.5 -108t26.5 -132t-26.5 -131.5t-72.5 -107.5t-107.5 -72.5t-131.5 -26.5t-131.5 26.5t-107.5 72.5t-72.5 107.5t-26.5 131.5t26.5 132t72.5 108t107.5 72.5t131.5 26.5zM357 0q74 0 139 28
t113.5 76.5t76.5 113.5t28 139t-28 139.5t-76.5 114t-113.5 76.5t-139 28t-139 -28t-113.5 -76.5t-76.5 -114t-28 -139.5t28 -139t76.5 -113.5t113.5 -76.5t139 -28z" />
    <glyph glyph-name="ocircumflex" unicode="&#xf4;" horiz-adv-x="814" 
d="M357 844l-90 -79h-11l85 85h32l85 -85h-10zM357 696q70 0 131.5 -26.5t107.5 -72.5t72.5 -108t26.5 -132t-26.5 -131.5t-72.5 -107.5t-107.5 -72.5t-131.5 -26.5t-131.5 26.5t-107.5 72.5t-72.5 107.5t-26.5 131.5t26.5 132t72.5 108t107.5 72.5t131.5 26.5zM357 0
q74 0 139 28t113.5 76.5t76.5 113.5t28 139t-28 139.5t-76.5 114t-113.5 76.5t-139 28t-139 -28t-113.5 -76.5t-76.5 -114t-28 -139.5t28 -139t76.5 -113.5t113.5 -76.5t139 -28z" />
    <glyph glyph-name="otilde" unicode="&#xf5;" horiz-adv-x="814" 
d="M420 787q-15 -22 -33 -22q-8 0 -15 3t-13 6q-8 5 -17 8t-20 3q-9 0 -15 -5.5t-10 -11.5l-6 9q12 21 33 21q8 0 15.5 -2.5t15.5 -6.5q27 -11 32 -11q9 0 15 5.5t11 12.5zM357 696q70 0 131.5 -26.5t107.5 -72.5t72.5 -108t26.5 -132t-26.5 -131.5t-72.5 -107.5
t-107.5 -72.5t-131.5 -26.5t-131.5 26.5t-107.5 72.5t-72.5 107.5t-26.5 131.5t26.5 132t72.5 108t107.5 72.5t131.5 26.5zM357 0q74 0 139 28t113.5 76.5t76.5 113.5t28 139t-28 139.5t-76.5 114t-113.5 76.5t-139 28t-139 -28t-113.5 -76.5t-76.5 -114t-28 -139.5t28 -139
t76.5 -113.5t113.5 -76.5t139 -28z" />
    <glyph glyph-name="odieresis" unicode="&#xf6;" horiz-adv-x="814" 
d="M428 818q11 0 19 -7.5t8 -18.5t-8 -19t-19 -8t-19 8t-8 19t8 18.5t19 7.5zM281 818q11 0 19 -7.5t8 -18.5t-8 -19t-19 -8t-19 8t-8 19t8 18.5t19 7.5zM357 696q70 0 131.5 -26.5t107.5 -72.5t72.5 -108t26.5 -132t-26.5 -131.5t-72.5 -107.5t-107.5 -72.5t-131.5 -26.5
t-131.5 26.5t-107.5 72.5t-72.5 107.5t-26.5 131.5t26.5 132t72.5 108t107.5 72.5t131.5 26.5zM357 0q74 0 139 28t113.5 76.5t76.5 113.5t28 139t-28 139.5t-76.5 114t-113.5 76.5t-139 28t-139 -28t-113.5 -76.5t-76.5 -114t-28 -139.5t28 -139t76.5 -113.5t113.5 -76.5
t139 -28z" />
    <glyph glyph-name="divide" unicode="&#xf7;" 
 />
    <glyph glyph-name="oslash" unicode="&#xf8;" 
 />
    <glyph glyph-name="ugrave" unicode="&#xf9;" horiz-adv-x="662" 
d="M298 765l-98 85h23l85 -85h-10zM550 715v-440q0 -57 -21.5 -107t-59 -87.5t-87.5 -59t-107 -21.5t-107 21.5t-87.5 59t-59 87.5t-21.5 107v440h19v-440q0 -53 20 -99.5t55 -81.5t81.5 -55t99.5 -20t99.5 20t81.5 55t55 81.5t20 99.5h-1v440h20z" />
    <glyph glyph-name="uacute" unicode="&#xfa;" horiz-adv-x="662" 
d="M358 850l-98 -85h-10l85 85h23zM550 715v-440q0 -57 -21.5 -107t-59 -87.5t-87.5 -59t-107 -21.5t-107 21.5t-87.5 59t-59 87.5t-21.5 107v440h19v-440q0 -53 20 -99.5t55 -81.5t81.5 -55t99.5 -20t99.5 20t81.5 55t55 81.5t20 99.5h-1v440h20z" />
    <glyph glyph-name="ucircumflex" unicode="&#xfb;" horiz-adv-x="662" 
d="M270 844l-90 -79h-11l85 85h32l85 -85h-10zM550 715v-440q0 -57 -21.5 -107t-59 -87.5t-87.5 -59t-107 -21.5t-107 21.5t-87.5 59t-59 87.5t-21.5 107v440h19v-440q0 -53 20 -99.5t55 -81.5t81.5 -55t99.5 -20t99.5 20t81.5 55t55 81.5t20 99.5h-1v440h20z" />
    <glyph glyph-name="udieresis" unicode="&#xfc;" horiz-adv-x="662" 
d="M333 818q11 0 19 -7.5t8 -18.5t-8 -19t-19 -8t-19 8t-8 19t8 18.5t19 7.5zM186 818q11 0 19 -7.5t8 -18.5t-8 -19t-19 -8t-19 8t-8 19t8 18.5t19 7.5zM550 715v-440q0 -57 -21.5 -107t-59 -87.5t-87.5 -59t-107 -21.5t-107 21.5t-87.5 59t-59 87.5t-21.5 107v440h19v-440
q0 -53 20 -99.5t55 -81.5t81.5 -55t99.5 -20t99.5 20t81.5 55t55 81.5t20 99.5h-1v440h20z" />
    <glyph glyph-name="ydieresis" unicode="&#xff;" 
 />
    </font>
</defs>
</svg>
